<svg xmlns="http://www.w3.org/2000/svg" viewBox="0 0 128 128" role="img" aria-label="SA monogram">
  <defs>
    <linearGradient id="g" x1="0" x2="1" y1="0" y2="1">
      <stop offset="0" stop-color="#64ffda"/>
      <stop offset="0.55" stop-color="#d38a5c"/>
      <stop offset="1" stop-color="#7c5cff"/>
    </linearGradient>
  </defs>
  <rect width="128" height="128" rx="28" fill="#07111f"/>
  <path d="M22 92V36h29c13 0 22 7 22 18 0 8-4 14-12 17l17 21H62L47 73H37v19H22Zm15-32h13c5 0 8-3 8-7s-3-7-8-7H37v14Zm51 32-8-15h-3l-7-13h3L91 36h14l30 56h-17l-5-10H91l-5 10h2Zm8-23h12l-6-13-6 13Z" fill="url(#g)"/>
  <path d="M20 20h88" stroke="url(#g)" stroke-width="3" stroke-linecap="round" opacity=".6"/>
  <path d="M20 108h88" stroke="url(#g)" stroke-width="3" stroke-linecap="round" opacity=".6"/>
</svg>
